<svg width="24" height="24" viewBox="0 0 24 24" fill="none" xmlns="http://www.w3.org/2000/svg">
  <path fill-rule="evenodd" clip-rule="evenodd"
    d="M18.949 15.6927C20.1773 15.1196 21.0286 13.8735 21.0286 12.4286V7.78173L18.6684 2.47143H15.0286V0.971436H4V3.02858H12.9714L12.9714 9.02859H18.9714V12.4286C18.9714 12.8146 18.8296 13.1676 18.5953 13.4381C18.0652 12.5592 17.1012 11.9715 16 11.9715C14.6885 11.9715 13.5717 12.8051 13.1506 13.9714H6.84944C6.42834 12.8051 5.31153 11.9715 4.00001 11.9715C2.32737 11.9715 0.971436 13.3274 0.971436 15C0.971436 16.6727 2.32737 18.0286 4.00001 18.0286C5.31154 18.0286 6.42836 17.1949 6.84945 16.0286H13.1506C13.5716 17.1949 14.6885 18.0286 16 18.0286C17.4343 18.0286 18.6358 17.0315 18.949 15.6927ZM18.4173 6.97144L17.3316 4.52858H15.0286V6.97144H18.4173ZM4.00001 14.0286C3.4635 14.0286 3.02858 14.4635 3.02858 15C3.02858 15.5365 3.4635 15.9715 4.00001 15.9715C4.53651 15.9715 4.97144 15.5365 4.97144 15C4.97144 14.4635 4.53651 14.0286 4.00001 14.0286ZM15.0286 15C15.0286 14.4635 15.4635 14.0286 16 14.0286C16.5365 14.0286 16.9714 14.4635 16.9714 15C16.9714 15.5365 16.5365 15.9715 16 15.9715C15.4635 15.9715 15.0286 15.5365 15.0286 15Z"
    fill="#0097C7" />
  <path d="M9 7.02858H1V4.97144H9V7.02858Z" fill="#0097C7" />
  <path d="M9 10.5286H4V8.47144H9V10.5286Z" fill="#0097C7" />
</svg>