<svg width="16" height="16" viewBox="0 0 16 16" fill="none" xmlns="http://www.w3.org/2000/svg">
  <path fill-rule="evenodd" clip-rule="evenodd"
    d="M13.7337 10.9496C13.4871 9.9451 12.5806 9.19995 11.5 9.19995C10.3314 9.19995 9.3664 10.0714 9.2194 11.2H4.78062C4.63362 10.0714 3.66859 9.19995 2.50001 9.19995C1.22976 9.19995 0.200012 10.2297 0.200012 11.5C0.200012 12.7702 1.22976 13.8 2.50001 13.8C3.28783 13.8 3.98313 13.4039 4.39764 12.8H9.60238C10.0169 13.4039 10.7122 13.8 11.5 13.8C12.3013 13.8 13.0068 13.3902 13.4186 12.7689C14.7664 12.5668 15.8 11.4041 15.8 9.99995V5.7875L13.4643 1.69995H10.8L10.8 0.199951H2V1.79995H9.2V2.49995L9.20001 2.50445V6.79996H14.2V9.99995C14.2 10.3863 14.0174 10.7301 13.7337 10.9496ZM10.8 5.19996H13.6215L12.5357 3.29995H10.8V5.19996ZM1.80001 11.5C1.80001 11.1134 2.11341 10.8 2.50001 10.8C2.88661 10.8 3.20001 11.1134 3.20001 11.5C3.20001 11.8866 2.88661 12.2 2.50001 12.2C2.11341 12.2 1.80001 11.8866 1.80001 11.5ZM10.8 11.5C10.8 11.1134 11.1134 10.8 11.5 10.8C11.8866 10.8 12.2 11.1134 12.2 11.5C12.2 11.8866 11.8866 12.2 11.5 12.2C11.1134 12.2 10.8 11.8866 10.8 11.5Z"
    fill="#0097C7" />
  <path d="M6 4.79996H0V3.19996H6V4.79996Z" fill="#0097C7" />
  <path d="M6 7.79996H2V6.19996H6V7.79996Z" fill="#0097C7" />
</svg>