<svg width="24" height="24" viewBox="0 0 24 24" fill="none" xmlns="http://www.w3.org/2000/svg">
<path fill-rule="evenodd" clip-rule="evenodd" d="M17.9444 10.3308C19.3137 8.94885 19.3661 6.72522 18.0635 5.27916C16.6702 3.7324 14.2785 3.67497 12.8139 5.15309L4.40932 13.635L3 12.2127L11.4046 3.7308C13.6739 1.44062 17.3794 1.52961 19.5382 3.92614C21.5565 6.16666 21.4753 9.61193 19.3537 11.753L10.3263 20.8635C8.73315 22.4713 6.1502 22.4713 4.55709 20.8635C2.96398 19.2557 2.96398 16.649 4.55709 15.0413L13.2657 6.2525C14.1588 5.35119 15.5727 5.24978 16.5831 6.01457C17.8187 6.94979 17.9471 8.7726 16.855 9.87476L8.76917 18.035L7.35985 16.6127L15.4457 8.45248C15.6801 8.21585 15.6526 7.82449 15.3873 7.6237C15.1704 7.4595 14.8668 7.48127 14.675 7.67478L5.96641 16.4635C5.15164 17.2858 5.15164 18.619 5.96641 19.4412C6.78118 20.2635 8.10218 20.2635 8.91694 19.4412L17.9444 10.3308Z" fill="#0097C7"/>
</svg>
