<svg width="16" height="16" viewBox="0 0 16 16" fill="none" xmlns="http://www.w3.org/2000/svg">
<path fill-rule="evenodd" clip-rule="evenodd" d="M12.7885 6.60913C13.8916 5.50361 13.9338 3.72471 12.8845 2.56786C11.7621 1.33045 9.83549 1.28451 8.65564 2.467L1.88528 9.25253L0.75 8.1147L7.52036 1.32917C9.34841 -0.502974 12.3334 -0.431782 14.0725 1.48544C15.6983 3.27786 15.6329 6.03408 13.9238 7.74696L6.65171 15.0353C5.36837 16.3216 3.28766 16.3216 2.00432 15.0353C0.720982 13.7491 0.720982 11.6638 2.00432 10.3775L9.01962 3.34653C9.73905 2.62548 10.878 2.54436 11.692 3.15619C12.6873 3.90436 12.7907 5.36261 11.911 6.24434L5.39739 12.7725L4.2621 11.6347L10.7757 5.10652C10.9646 4.91721 10.9424 4.60412 10.7287 4.44349C10.5539 4.31213 10.3094 4.32955 10.1549 4.48436L3.13961 11.5154C2.48327 12.1732 2.48327 13.2397 3.13961 13.8975C3.79595 14.5553 4.86009 14.5553 5.51643 13.8975L12.7885 6.60913Z" fill="#0097C7"/>
</svg>
