<svg width="24" height="24" viewBox="0 0 24 24" fill="none" xmlns="http://www.w3.org/2000/svg">
<path d="M22 2L21.9999 14H18V13C18 11.6938 18.8348 10.5825 20 10.1707V5.8293C19.1476 5.52801 18.472 4.85241 18.1707 4H5.82931C5.52802 4.85242 4.85242 5.52802 4 5.8293V10.1707C5.16519 10.5825 6 11.6938 6 13V14L2 14V2H22Z" fill="#00B9FF"/>
<path d="M13 18V13H11V17.9998L8.20718 15.2929L6.79297 16.7071L12 22L17.2072 16.7071L15.793 15.2929L13 18Z" fill="#00B9FF"/>
<path fill-rule="evenodd" clip-rule="evenodd" d="M12 5C10.3431 5 9 6.34315 9 8C9 9.65685 10.3431 11 12 11C13.6569 11 15 9.65685 15 8C15 6.34315 13.6569 5 12 5ZM11 8C11 7.44772 11.4477 7 12 7C12.5523 7 13 7.44772 13 8C13 8.55228 12.5523 9 12 9C11.4477 9 11 8.55228 11 8Z" fill="#00B9FF"/>
</svg>
