<svg width="16" height="16" viewBox="0 0 16 16" fill="none" xmlns="http://www.w3.org/2000/svg">
<path d="M0 0H15.9999L16 9.72155H12.8205V8.91143C12.8205 7.90999 13.4606 7.05617 14.3589 6.72708V2.99447C13.7161 2.75901 13.2055 2.25489 12.9671 1.62026H3.03291C2.79442 2.25492 2.28381 2.75906 1.64102 2.99452V6.72715C2.53938 7.0562 3.17957 7.91006 3.17957 8.91155V9.72166L0.000100257 9.72173L0 0Z" fill="#00B9FF"/>
<path fill-rule="evenodd" clip-rule="evenodd" d="M5.64099 4.86078C5.64099 3.57444 6.69713 2.53165 7.99995 2.53165C9.30277 2.53165 10.3589 3.57444 10.3589 4.86078C10.3589 6.14712 9.30277 7.1899 7.99995 7.1899C6.69713 7.1899 5.64099 6.14712 5.64099 4.86078ZM7.99995 4.15191C7.60344 4.15191 7.28201 4.46928 7.28201 4.86078C7.28201 5.25227 7.60344 5.56964 7.99995 5.56964C8.39646 5.56964 8.71789 5.25227 8.71789 4.86078C8.71789 4.46928 8.39646 4.15191 7.99995 4.15191Z" fill="#00B9FF"/>
<path d="M8.82048 8.40504L8.82049 12.962L11.5224 10.2308L12.6827 11.3765L8.00001 16L3.31729 11.3765L4.47766 10.2308L7.17948 12.9619L7.17947 8.40504H8.82048Z" fill="#00B9FF"/>
</svg>
