<svg width="16" height="16" viewBox="0 0 16 16" fill="none" xmlns="http://www.w3.org/2000/svg">
<path fill-rule="evenodd" clip-rule="evenodd" d="M10.7932 2.6042C10.6927 1.14916 9.48055 0 8 0C6.51944 0 5.30728 1.14916 5.20681 2.6042C4.09354 3.18166 3.18166 4.09354 2.60418 5.20681C1.14915 5.30728 0 6.51944 0 7.99999C0 9.48052 1.14912 10.6927 2.60413 10.7932C3.1816 11.9065 4.09352 12.8184 5.20684 13.3959C5.30736 14.8509 6.51949 16 8.00001 16C9.48053 16 10.6927 14.8509 10.7932 13.3959C11.9065 12.8184 12.8184 11.9065 13.3959 10.7932C14.8509 10.6927 16 9.48052 16 7.99999C16 6.51943 14.8509 5.30728 13.3958 5.20681C12.8183 4.09354 11.9065 3.18166 10.7932 2.6042ZM8 1.6C8.66269 1.6 9.19991 2.13722 9.19991 2.79992C9.19991 3.46261 8.66269 3.99983 8 3.99983C7.3373 3.99983 6.80008 3.46261 6.80008 2.79992C6.80008 2.13722 7.3373 1.6 8 1.6ZM10.4087 4.2283C9.92063 5.0495 9.02458 5.59983 8 5.59983C6.97541 5.59983 6.07936 5.0495 5.59133 4.22831C5.04426 4.5784 4.5784 5.04425 4.2283 5.59132C5.04949 6.07935 5.59983 6.9754 5.59983 7.99999C5.59983 9.02459 5.04947 9.92066 4.22825 10.4087C4.57835 10.9558 5.04421 11.4216 5.5913 11.7718C6.07932 10.9505 6.97539 10.4001 8.00001 10.4001C9.02463 10.4001 9.9207 10.9505 10.4087 11.7717C10.9558 11.4216 11.4217 10.9558 11.7718 10.4087C10.9505 9.92066 10.4002 9.02459 10.4002 7.99999C10.4002 6.9754 10.9505 6.07936 11.7717 5.59132C11.4216 5.04425 10.9557 4.5784 10.4087 4.2283ZM2.79991 6.80007C2.13722 6.80007 1.6 7.33729 1.6 7.99999C1.6 8.66268 2.13722 9.1999 2.79991 9.1999C3.46261 9.1999 3.99983 8.66268 3.99983 7.99999C3.99983 7.33729 3.46261 6.80007 2.79991 6.80007ZM13.2001 6.80007C12.5374 6.80007 12.0002 7.33729 12.0002 7.99999C12.0002 8.66268 12.5374 9.1999 13.2001 9.1999C13.8628 9.1999 14.4 8.66268 14.4 7.99999C14.4 7.33729 13.8628 6.80007 13.2001 6.80007ZM9.19993 13.2001C9.19993 12.5374 8.66271 12.0001 8.00001 12.0001C7.33732 12.0001 6.80009 12.5374 6.80009 13.2001C6.80009 13.8628 7.33732 14.4 8.00001 14.4C8.66271 14.4 9.19993 13.8628 9.19993 13.2001Z" fill="#37517E"/>
</svg>
