<svg width="24" height="24" viewBox="0 0 24 24" fill="none" xmlns="http://www.w3.org/2000/svg">
<path fill-rule="evenodd" clip-rule="evenodd" d="M12.0079 1.00006C14.0535 1.00006 15.7189 2.62344 15.7794 4.64882C17.3151 5.4358 18.5714 6.68857 19.3607 8.22003C21.3825 8.29031 23 9.94706 23 11.9806C23 14.0141 21.3825 15.6708 19.3607 15.7411C18.5718 17.2718 17.3164 18.5241 15.7817 19.3111C15.7422 21.3552 14.0684 23.0001 12.0093 23.0001C9.95022 23.0001 8.27638 21.3552 8.23687 19.3112C6.70321 18.5246 5.44841 17.2735 4.65943 15.7442C2.62818 15.6842 0.999984 14.0232 0.999985 11.983C0.999984 9.9436 2.62682 8.28315 4.65689 8.2219C5.44565 6.69048 6.70135 5.43758 8.23647 4.6502C8.29624 2.62417 9.9619 1.00006 12.0079 1.00006ZM12.0079 2.99651C12.9862 2.99651 13.7792 3.78736 13.7792 4.76292C13.7792 5.73847 12.9862 6.52932 12.0079 6.52932C11.0297 6.52932 10.2367 5.73847 10.2367 4.76292C10.2367 3.78736 11.0297 2.99651 12.0079 2.99651ZM8.7632 17.3179C9.42083 16.2141 10.6284 15.4743 12.0093 15.4743C13.3901 15.4743 14.5977 16.2141 15.2554 17.3179C16.1065 16.802 16.8244 16.0893 17.3457 15.2431C16.2149 14.5932 15.4537 13.3756 15.4537 11.9806C15.4537 10.5856 16.2149 9.36789 17.3456 8.71803C16.8276 7.87717 16.1154 7.1681 15.2713 6.65296C14.6177 7.77293 13.401 8.52577 12.0079 8.52577C10.6154 8.52577 9.39907 7.77346 8.74529 6.65415C7.89876 7.17118 7.18501 7.88328 6.66692 8.72774C7.79071 9.37938 8.54624 10.5932 8.54624 11.983C8.54624 13.3719 7.7917 14.585 6.66911 15.237C7.19068 16.0858 7.91003 16.8007 8.7632 17.3179ZM19.2269 10.2142C18.2486 10.2142 17.4556 11.005 17.4556 11.9806C17.4556 12.9561 18.2486 13.747 19.2269 13.747C20.2051 13.747 20.9981 12.9561 20.9981 11.9806C20.9981 11.005 20.2051 10.2142 19.2269 10.2142ZM4.77311 10.2166C3.79489 10.2166 3.00189 11.0074 3.00189 11.983C3.00189 12.9586 3.79489 13.7494 4.77311 13.7494C5.75133 13.7494 6.54434 12.9586 6.54433 11.983C6.54434 11.0074 5.75133 10.2166 4.77311 10.2166ZM12.0093 17.4708C12.9875 17.4708 13.7805 18.2616 13.7805 19.2372C13.7805 20.2128 12.9875 21.0036 12.0093 21.0036C11.0311 21.0036 10.2381 20.2128 10.2381 19.2372C10.2381 18.2616 11.0311 17.4708 12.0093 17.4708Z" fill="#37517E"/>
</svg>
