<svg width="24" height="24" viewBox="0 0 24 24" fill="none" xmlns="http://www.w3.org/2000/svg">
<path d="M10.1615 6.15211C10.3235 6.07497 10.4972 6.03574 10.6772 6.03574H15.5756C16.1852 6.03574 16.751 6.07693 17.2572 6.1581C17.4066 6.18207 17.5521 6.20952 17.6936 6.2409C17.8359 6.27206 17.9747 6.30747 18.1088 6.34659C18.1757 6.36598 18.2423 6.38657 18.3078 6.40815C18.3512 6.42244 18.3927 6.4386 18.4341 6.45475C18.4553 6.46298 18.4764 6.47121 18.4978 6.47918C18.597 5.14766 18.2231 4.21884 17.577 3.50802C16.6301 2.4661 14.9631 2 12.8102 2H6.99185C6.55186 2 6.17726 2.31847 6.1087 2.75091L3.50668 19.1642C3.45531 19.488 3.7069 19.7809 4.03648 19.7809H7.46371L9.49803 7.03844C9.55914 6.65253 9.80712 6.3212 10.1615 6.15211Z" fill="#0097C7"/>
<path d="M18.0487 7.18552C17.9931 7.16711 17.9361 7.14935 17.8781 7.13279C17.7606 7.09836 17.6398 7.06774 17.5153 7.04039C17.3889 7.01239 17.2595 6.98777 17.1264 6.96663C16.6631 6.89222 16.1414 6.85463 15.5755 6.85463H11.0266C10.9063 6.85463 10.7917 6.88187 10.6889 6.93079C10.4631 7.03854 10.2953 7.25144 10.2541 7.51151L9.4327 12.7066C9.51989 12.6908 9.61244 12.6809 9.71321 12.6809H11.5466C12.5193 12.6809 13.3881 12.5722 14.1552 12.3532C16.0967 11.799 17.4019 10.5416 18.0561 8.5445C18.2009 8.10215 18.3071 7.69313 18.3817 7.31114C18.2751 7.26582 18.1643 7.22376 18.0487 7.18552Z" fill="#0097C7"/>
<path d="M19.1774 7.66369C19.3838 7.80195 19.5758 7.95242 19.7331 8.13077C20.402 8.88887 20.6025 9.92578 20.4534 11.1597C20.4363 11.2703 20.4177 11.3805 20.3962 11.4898C19.6755 15.1715 17.2089 16.4447 14.0587 16.4447H13.5723C13.1873 16.4447 12.8597 16.7233 12.7997 17.1015L12.1157 21.3432C12.0558 21.7214 11.7281 22 11.3432 22H8.52208C8.26216 22 8.01441 21.7688 8.05712 21.4843C8.1109 21.1252 9.20271 14.2835 9.20271 14.2835C9.27127 13.8512 9.64269 13.5328 10.0827 13.5328C10.0827 13.5328 11.4762 13.5375 11.4882 13.5375C17.1576 13.5375 18.6702 10.1036 19.1774 7.66369Z" fill="#0097C7"/>
</svg>
