<svg width="16" height="16" viewBox="0 0 16 16" fill="none" xmlns="http://www.w3.org/2000/svg">
<path d="M6.52918 3.32168C6.65877 3.25997 6.79775 3.22859 6.9418 3.22859H10.8605C11.3482 3.22859 11.8008 3.26154 12.2058 3.32648C12.3253 3.34565 12.4417 3.36762 12.5549 3.39272C12.6687 3.41765 12.7798 3.44598 12.8871 3.47727C12.9406 3.49279 12.9939 3.50926 13.0463 3.52652C13.0809 3.53795 13.1141 3.55088 13.1473 3.5638C13.1642 3.57038 13.1811 3.57696 13.1982 3.58335C13.2776 2.51813 12.9785 1.77507 12.4616 1.20642C11.7041 0.372881 10.3705 0 8.64821 0H3.99349C3.6415 0 3.34182 0.254776 3.28697 0.600725L1.20535 13.7314C1.16426 13.9904 1.36553 14.2247 1.62919 14.2247H4.37098L5.99843 4.03075C6.04733 3.72202 6.24571 3.45696 6.52918 3.32168Z" fill="#0097C7"/>
<path d="M12.839 4.14842C12.7945 4.13369 12.7489 4.11948 12.7025 4.10623C12.6085 4.07869 12.5118 4.05419 12.4123 4.03232C12.3112 4.00991 12.2076 3.99022 12.1011 3.97331C11.7305 3.91377 11.3131 3.8837 10.8604 3.8837H7.22129C7.12508 3.8837 7.03333 3.90549 6.95114 3.94463C6.77046 4.03083 6.63622 4.20115 6.60327 4.40921L5.94617 8.5653C6.01592 8.55266 6.08997 8.54473 6.17058 8.54473H7.63733C8.41544 8.54473 9.11048 8.45774 9.72421 8.28254C11.2774 7.83923 12.3215 6.83329 12.8449 5.2356C12.9607 4.88172 13.0457 4.55451 13.1054 4.24891C13.0201 4.21266 12.9314 4.17901 12.839 4.14842Z" fill="#0097C7"/>
<path d="M13.7419 4.53095C13.9071 4.64156 14.0607 4.76193 14.1865 4.90462C14.7216 5.5111 14.882 6.34062 14.7627 7.32774C14.7491 7.41621 14.7342 7.50442 14.717 7.59185C14.1404 10.5372 12.1671 11.5557 9.64694 11.5557H9.25788C8.94988 11.5557 8.6878 11.7786 8.63978 12.0812L8.09256 15.4746C8.04463 15.7771 7.78246 16 7.47454 16H5.21768C5.00974 16 4.81154 15.815 4.84571 15.5875C4.88873 15.3002 5.76218 9.82679 5.76218 9.82679C5.81703 9.48092 6.11417 9.22623 6.46616 9.22623C6.46616 9.22623 7.58101 9.22998 7.59056 9.22998C12.1261 9.22998 13.3362 6.48287 13.7419 4.53095Z" fill="#0097C7"/>
</svg>
