<svg width="16" height="16" viewBox="0 0 16 16" fill="none" xmlns="http://www.w3.org/2000/svg">
<path fill-rule="evenodd" clip-rule="evenodd" d="M2.63995 2.63998C2.63995 1.88888 3.24884 1.27999 3.99994 1.27999C4.75104 1.27999 5.35993 1.88888 5.35993 2.63998C5.35993 3.39108 4.75104 3.99996 3.99994 3.99996C3.24884 3.99996 2.63995 3.39108 2.63995 2.63998ZM1.43807 3.27999H0V2H1.43806C1.72411 0.851218 2.76262 0 3.99994 0C5.23726 0 6.27577 0.851218 6.56181 2H15.9998V3.27999H6.5618C6.27574 4.42875 5.23724 5.27995 3.99994 5.27995C2.76263 5.27995 1.72413 4.42875 1.43807 3.27999ZM10.6398 8.03216C10.6398 7.28107 11.2487 6.67218 11.9998 6.67218C12.7509 6.67218 13.3598 7.28107 13.3598 8.03216C13.3598 8.78326 12.7509 9.39215 11.9998 9.39215C11.2487 9.39215 10.6398 8.78326 10.6398 8.03216ZM9.43794 8.67218H0V7.39219H9.43793C9.72398 6.24341 10.7625 5.39219 11.9998 5.39219C13.2371 5.39219 14.2756 6.24341 14.5617 7.39219H15.9999V8.67218H14.5617C14.2756 9.82094 13.2371 10.6721 11.9998 10.6721C10.7625 10.6721 9.724 9.82094 9.43794 8.67218ZM5.99981 12C5.24871 12 4.63982 12.6089 4.63982 13.36C4.63982 14.1111 5.24871 14.72 5.99981 14.72C6.75091 14.72 7.3598 14.1111 7.3598 13.36C7.3598 12.6089 6.75091 12 5.99981 12ZM0 14H3.43794C3.724 15.1488 4.7625 16 5.99981 16C7.23712 16 8.27561 15.1488 8.56167 14H15.9998V12.7201H8.56168C8.27564 11.5713 7.23713 10.7201 5.99981 10.7201C4.76249 10.7201 3.72398 11.5713 3.43793 12.7201H0V14Z" fill="#0097C7"/>
</svg>
