<svg width="24" height="24" viewBox="0 0 24 24" fill="none" xmlns="http://www.w3.org/2000/svg">
<path fill-rule="evenodd" clip-rule="evenodd" d="M5.30004 5.29999C5.30004 4.36111 6.06116 3.6 7.00004 3.6C7.93892 3.6 8.70003 4.36111 8.70003 5.29999C8.70003 6.23887 7.93892 6.99999 7.00004 6.99999C6.06116 6.99999 5.30004 6.23887 5.30004 5.29999ZM3.79768 6.09999H2V4.49999H3.79768C4.15525 3.06402 5.45339 2 7.00004 2C8.54669 2 9.84483 3.06402 10.2024 4.49999H21.9999V6.09999H10.2024C9.84483 7.53597 8.54669 8.59999 7.00004 8.59999C5.45338 8.59999 4.15524 7.53597 3.79768 6.09999ZM15.3 12.0405C15.3 11.1017 16.0611 10.3405 17 10.3405C17.9389 10.3405 18.7 11.1017 18.7 12.0405C18.7 12.9794 17.9389 13.7405 17 13.7405C16.0611 13.7405 15.3 12.9794 15.3 12.0405ZM13.7976 12.8405H2V11.2405H13.7976C14.1552 9.80455 15.4534 8.74053 17 8.74053C18.5466 8.74053 19.8448 9.80455 20.2024 11.2405H22V12.8405H20.2024C19.8448 14.2765 18.5466 15.3405 17 15.3405C15.4534 15.3405 14.1552 14.2765 13.7976 12.8405ZM9.49988 17C8.561 17 7.79989 17.7611 7.79989 18.7C7.79989 19.6389 8.561 20.4 9.49988 20.4C10.4388 20.4 11.1999 19.6389 11.1999 18.7C11.1999 17.7611 10.4388 17 9.49988 17ZM2 19.4999H6.2975C6.65504 20.9359 7.9532 22 9.49988 22C11.0466 22 12.3447 20.9359 12.7023 19.4999H21.9999V17.8999H12.7022C12.3446 16.464 11.0465 15.4 9.49988 15.4C7.95326 15.4 6.65515 16.464 6.29755 17.8999H2V19.4999Z" fill="#0097C7"/>
</svg>
