<svg width="16" height="16" viewBox="0 0 16 16" fill="none" xmlns="http://www.w3.org/2000/svg">
<path fill-rule="evenodd" clip-rule="evenodd" d="M12.8 2.2H15.8V7H14.2V6H1.80001V14.2H7.00001V15.8H0.200012V2.2H2.69999V0H4.29999V2.2H11.2V0H12.8V2.2ZM11.2 3V4.5H12.8V3H11.2ZM2.69999 3V4.5H4.29999V3H2.69999Z" fill="#0097C7"/>
<path fill-rule="evenodd" clip-rule="evenodd" d="M12 16C14.2091 16 16 14.2091 16 12C16 9.79086 14.2091 8 12 8C9.79086 8 8 9.79086 8 12C8 14.2091 9.79086 16 12 16ZM11.25 12.5429L10.3536 11.6464L9.64645 12.3536L11.25 13.9571L14.3536 10.8536L13.6465 10.1464L11.25 12.5429Z" fill="#0097C7"/>
</svg>

