<svg width="24" height="24" viewBox="0 0 24 24" fill="none" xmlns="http://www.w3.org/2000/svg">
<path fill-rule="evenodd" clip-rule="evenodd" d="M8 2H6V4H2V22H10V20H4V9H20V10.5H22V4H18V2H16V4H8V2ZM8 5H6V7H8V5ZM18 5H16V7H18V5Z" fill="#0097C7"/>
<path fill-rule="evenodd" clip-rule="evenodd" d="M17 22C19.7614 22 22 19.7614 22 17C22 14.2386 19.7614 12 17 12C14.2386 12 12 14.2386 12 17C12 19.7614 14.2386 22 17 22ZM14.8536 16.6465L14.1465 17.3536L16.25 19.4571L20.1036 15.6036L19.3965 14.8965L16.25 18.0429L14.8536 16.6465Z" fill="#0097C7"/>
</svg>

