<svg width="24" height="24" viewBox="0 0 24 24" fill="none" xmlns="http://www.w3.org/2000/svg">
<path fill-rule="evenodd" clip-rule="evenodd" d="M18.1043 2L18.3652 2.97363L18.3668 2.97974L18.3725 3.00147L18.3933 3.08186C18.4111 3.15144 18.4366 3.25245 18.468 3.38148C18.5307 3.63946 18.6173 4.00991 18.714 4.46533C18.907 5.37467 19.1422 6.63015 19.3084 8.00982C19.4741 9.38546 19.5745 10.9093 19.4881 12.3485C19.4028 13.7695 19.1305 15.2073 18.4761 16.3408C17.2977 18.3819 15.7454 19.6956 13.8978 20.1523C12.1577 20.5823 10.3238 20.2104 8.54256 19.2513C8.49108 19.3741 8.44137 19.4948 8.39339 19.6133C8.01231 20.5549 7.73999 21.3608 7.54852 22H5.45829C5.66705 21.2307 6.0035 20.1606 6.53026 18.8592C6.62677 18.6208 6.72966 18.3746 6.83932 18.1211C5.69415 17.1828 4.87058 16.0458 4.48719 14.719C3.95888 12.8907 4.32043 10.8895 5.49885 8.84843C6.15332 7.71485 7.26233 6.76022 8.45032 5.97585C9.65352 5.18143 11.0234 4.50641 12.2976 3.96212C13.5755 3.41624 14.7804 2.99213 15.6644 2.70467C16.1072 2.5607 16.4712 2.45043 16.726 2.37577C16.8535 2.33842 16.9537 2.30996 17.0228 2.29061L17.1029 2.26844L17.1245 2.26253L17.1306 2.26088L18.1043 2ZM14.4602 9.56892C12.0982 12.4759 10.4795 15.1753 9.37797 17.4173C10.8974 18.2637 12.2588 18.4869 13.4155 18.201C14.5965 17.9091 15.7513 17.0403 16.7354 15.3359C17.1622 14.5967 17.404 13.5221 17.4817 12.2281C17.5583 10.9522 17.4704 9.55829 17.3128 8.25024C17.1557 6.94623 16.9324 5.75212 16.7478 4.88279C16.7186 4.74504 16.6903 4.61563 16.6635 4.49543C16.546 4.53233 16.4199 4.57258 16.2859 4.61613C15.4408 4.89094 14.295 5.29457 13.0871 5.81052C11.8755 6.32806 10.6244 6.94896 9.55779 7.6532C8.47595 8.36748 7.6663 9.11424 7.23953 9.85342C6.25547 11.5579 6.08048 12.9924 6.41816 14.1611C6.62835 14.8885 7.05789 15.5847 7.72618 16.2247C8.88421 13.9204 10.5416 11.2043 12.9002 8.30145L14.4602 9.56892Z" fill="#0097C7"/>
</svg>
