<svg width="16" height="16" viewBox="0 0 16 16" fill="none" xmlns="http://www.w3.org/2000/svg">
<path fill-rule="evenodd" clip-rule="evenodd" d="M13.0834 0L13.2921 0.778903L13.2934 0.783792L13.298 0.801177L13.3147 0.865489C13.3289 0.921148 13.3493 1.00196 13.3744 1.10519C13.4246 1.31157 13.4938 1.60793 13.5712 1.97226C13.7256 2.69973 13.9137 3.70412 14.0467 4.80786C14.1793 5.90837 14.2596 7.12743 14.1905 8.2788C14.1222 9.41561 13.9044 10.5658 13.3809 11.4727C12.4381 13.1055 11.1963 14.1565 9.71826 14.5218C8.32618 14.8659 6.85908 14.5683 5.43405 13.8011C5.39286 13.8993 5.3531 13.9958 5.31472 14.0907C5.00984 14.8439 4.79199 15.4886 4.63882 16H2.96663C3.13364 15.3846 3.4028 14.5285 3.82421 13.4874C3.90142 13.2966 3.98373 13.0997 4.07146 12.8969C3.15532 12.1463 2.49646 11.2367 2.18975 10.1752C1.7671 8.71254 2.05634 7.11161 2.99908 5.47875C3.52265 4.57188 4.40987 3.80818 5.36025 3.18068C6.32281 2.54515 7.41869 2.00512 8.43805 1.5697C9.4604 1.13299 10.4243 0.793706 11.1315 0.563736C11.4857 0.448562 11.777 0.36034 11.9808 0.300613C12.0828 0.270739 12.1629 0.247966 12.2183 0.232486L12.2823 0.214752L12.2996 0.210027L12.3045 0.208708L13.0834 0ZM10.1681 6.05514C8.27857 8.38074 6.98356 10.5403 6.10238 12.3338C7.31791 13.011 8.40704 13.1895 9.33243 12.9608C10.2772 12.7273 11.2011 12.0322 11.9883 10.6687C12.3297 10.0773 12.5232 9.21769 12.5854 8.18246C12.6466 7.16179 12.5764 6.04663 12.4503 5.00019C12.3246 3.95698 12.1459 3.00169 11.9982 2.30623C11.9749 2.19603 11.9523 2.09251 11.9308 1.99635C11.8368 2.02586 11.7359 2.05807 11.6288 2.0929C10.9526 2.31275 10.036 2.63566 9.0697 3.04841C8.10042 3.46245 7.09952 3.95917 6.24623 4.52256C5.38076 5.09399 4.73304 5.69139 4.39162 6.28273C3.60438 7.64628 3.46438 8.79394 3.73453 9.72885C3.90268 10.3108 4.24631 10.8678 4.78094 11.3797C5.70736 9.5363 7.03332 7.36342 8.92015 5.04116L10.1681 6.05514Z" fill="#0097C7"/>
</svg>
